# xmcd CD database file
#
# Track frame offsets:
#	150
#	4844
#	24703
#	46311
#	61835
#	69954
#	83471
#	105898
#	126815
#	130378
#
# Disc length: 1971 seconds
#
# Revision: 0
# Processed by: cddbd v1.4PL0 Copyright (c) Steve Scherf et al.
# Submitted via: CDex 1.50beta10
#
DISCID=7307b10a
DTITLE=Kanata - RASHIN
DYEAR=2002
DGENRE=Country
TTITLE0=Asian Beat
TTITLE1=Reminisce
TTITLE2=Real
TTITLE3=Kanjou
TTITLE4=Another World
TTITLE5=Door
TTITLE6=Cycle Of Blood
TTITLE7=Kodou
TTITLE8=Gekkou
TTITLE9=Origin
EXTD=YEAR: 2002
EXTT0=
EXTT1=
EXTT2=
EXTT3=
EXTT4=
EXTT5=
EXTT6=
EXTT7=
EXTT8=
EXTT9=
PLAYORDER=
